<svg id="Layer_1" data-name="Layer 1" xmlns="http://www.w3.org/2000/svg" viewBox="0 0 1049 1049"><defs><style>.cls-1{fill:#fff;}</style></defs><title>small-logo-white</title><path class="cls-1" d="M920,361.21,561.38,324.34V295.11a96.25,96.25,0,1,0-121.32-22.37L368.42,379.67l-55.51-93.58a3.55,3.55,0,0,0-4.84-1.26l-52.46,30.53a3.55,3.55,0,0,0-1.29,4.86l71.42,123.17L135.31,727.67l-8.8,11.8a3.53,3.53,0,0,0,.33,4.63c16.4,16.41,126.28,119.76,308.59,138.48l-4.56,47.5a3.56,3.56,0,0,0,3.54,3.9h157.2a3.56,3.56,0,0,0,3.54-3.9L590.63,883c183-18.41,293.27-122.15,309.7-138.6a3.53,3.53,0,0,0,.33-4.63l-53.08-71.22a3.58,3.58,0,0,0-1-.92l-166-235.91,239.59-30.33a3.56,3.56,0,0,0,3.11-3.53V364.75A3.56,3.56,0,0,0,920,361.21ZM466.85,757.3H450.69a3.56,3.56,0,0,0-3.54,3.21l-1.78,18.58c-71-11.63-150.69-36-207.52-70.88l229-408.35Zm319.08-46.72c-56.88,34-135.36,57.68-205.23,69l-1.83-19.08a3.56,3.56,0,0,0-3.54-3.21h-14V446.84l78.83-10Z"/></svg>